<?xml version="1.0" encoding="utf-8"?>
<!-- Generator: Adobe Illustrator 17.0.0, SVG Export Plug-In . SVG Version: 6.00 Build 0)  -->
<!DOCTYPE svg PUBLIC "-//W3C//DTD SVG 1.1//EN" "http://www.w3.org/Graphics/SVG/1.1/DTD/svg11.dtd">
<svg version="1.1" id="Layer_1" xmlns="http://www.w3.org/2000/svg" xmlns:xlink="http://www.w3.org/1999/xlink" x="0px" y="0px"
	 width="116.239px" height="45.409px" viewBox="0 0 116.239 45.409" enable-background="new 0 0 116.239 45.409"
	 xml:space="preserve">
<path fill="#202C48" d="M8.939,17.073c4.175,0.264,10.952-1.81,13.823-4.776c2.628-2.715,3.251-4.35,3.28-5.674
	c0.04-1.76-1.16-2.402-1.527-2.573c-1.915-0.87-6.116-0.712-9.293,5.544c-1.24,2.418-2.196,5.309-2.501,6.387
	c-1.313,0.258-2.288,0.321-3.406-0.252c-0.608-0.311-1.03-0.304-1.303,0.121C7.739,16.275,7.877,16.981,8.939,17.073z M18.611,7.887
	c2.221-3.38,4.778-3.997,5.258-2.903c0.479,1.092-0.345,3.731-2.346,6.023c-2,2.291-5.73,4.271-6.522,4.492
	C15.024,15.428,16.391,11.267,18.611,7.887z M31.884,38.486c-0.432-0.391-0.971-0.237-1.82,0.63
	c-2.031,1.913-6.561,1.683-8.904,0.677c-5.961-2.557-7.424-5.679-13.562-8.63c3.591-4.139,5.702-9.783,6.95-14.095
	c-0.557,0.211-1.528,0.451-2.294,0.552c-0.228,1.503-2.985,8.838-6.171,12.631c-1.517-1.138-2.469-0.731-2.796-0.21
	c-0.461,0.736-0.051,2.191,3.175,2.481c3.391,1.596,5.802,3.95,9.156,6.14c7.2,4.702,12.611,3.021,15.489,1.462
	C32.16,39.552,32.202,38.774,31.884,38.486z M84.246,28.958c-0.499,1.221-1.763,1.615-2.202,1.569
	c-0.571-0.061-0.999-0.511-0.795-1.357c0.135-0.554,0.268-1.026,0.404-1.46c0.891-2.399,1.875-5.107,2.127-6.052
	c0.489-1.831-0.362-3.089-1.49-3.309c-0.892-0.173-2.203,0.187-3.106,0.787c-0.906,0.601-2.171,1.896-2.591,2.68
	c0.729-2.83-0.852-3.963-2.858-3.342c-1.146,0.354-2.105,1.187-2.875,2.052c-0.43,0.483-0.857,1.053-1.099,1.428
	c0.075-0.281,0.33-1.414,0.375-2.062c0.051-0.682-0.331-1.377-0.881-1.533c-0.521-0.147-1.172-0.081-1.78,0.293v-0.004
	c-0.025,0.016-0.05,0.033-0.076,0.05c-0.007,0.004-0.014,0.007-0.02,0.012c-0.008,0.005-0.015,0.011-0.022,0.015
	c-0.807,0.542-1.274,1.267-1.697,1.898c-0.098,0.148-0.154,0.226-0.041,0.292c0.152,0.088,0.345-0.025,0.442-0.099
	c0.161-0.122,0.58-0.78,1.244-1.134c0.639-0.342,1.212-0.34,0.317,2.128c-0.961,2.651-3.782,10.069-3.782,10.069h2.274
	c0,0,1.433-3.944,2.672-7.058c1.238-3.114,3.274-4.619,4.489-5.056c1.66-0.554,1.515,1.517,0.767,3.514
	c-0.72,1.923-3.278,8.615-3.278,8.615h2.296l2.684-7.073c1.238-3.114,3.305-4.619,4.521-5.056c1.124-0.375,1.875,0.59,0.698,3.661
	c-0.228,0.653-0.556,1.489-1.314,3.489c-0.76,2-0.876,2.796-0.907,3.429c-0.05,1,0.502,1.577,1.503,1.694
	c1.569,0.183,3.812-1.274,4.224-2.627c0.06-0.201,0.085-0.291-0.025-0.509C84.396,28.802,84.335,28.748,84.246,28.958z
	 M22.136,18.65c-1.576,0.639-3.687,2.007-5.711,6.087c-0.644,1.324-1.107,2.954-0.849,4.453c0.368,2.136,2.219,3.261,4.25,2.523
	c0.714-0.26,1.898-0.935,2.482-1.416c0.877-0.724,1.276-1.137,1.945-2.055c-0.045,0.159-0.339,1.484-0.37,2.117
	c-0.051,1,0.501,1.577,1.502,1.694c1.57,0.184,3.821-1.382,4.231-2.735c0.061-0.201,0.085-0.29-0.023-0.509
	c-0.049-0.099-0.108-0.153-0.198,0.058c-0.499,1.22-1.771,1.724-2.21,1.678c-0.571-0.061-0.999-0.51-0.794-1.357
	c0.362-1.499,0.663-2.371,1.108-3.548c0.625-1.653,2.626-6.953,2.626-6.953l-2.27-0.001c0,0-0.559,1.462-0.631,1.672
	c-0.054-0.351-0.155-0.736-0.391-1.056c-0.339-0.456-0.819-0.755-1.637-0.941C24.379,18.176,23.014,18.293,22.136,18.65z
	 M26.491,20.638c0.189,0.761-0.021,1.692-0.021,1.692s-1.176,3.125-1.37,3.631c-0.674,1.335-1.976,2.747-2.835,3.356
	c-0.858,0.608-1.771,0.966-2.384,1.014c-1.096,0.085-1.691-0.624-1.9-1.636c-0.21-1.012-0.137-1.892,0.751-3.802
	c0.887-1.911,2.425-3.751,3.554-4.661c0.987-0.827,1.936-1.05,2.589-0.992C25.646,19.308,26.301,19.877,26.491,20.638z
	 M112.09,18.581c-0.651-0.333-1.665-0.568-2.909,0.143c-1.037,0.571-2.395,1.894-3.172,3.095c0.238-0.647,0.309-1.66-0.015-2.542
	s-1.579-1.295-2.582-0.742c-1.004,0.554-1.532,1.38-2.006,2.087c-0.098,0.148-0.115,0.225-0.002,0.29
	c0.114,0.065,0.316-0.062,0.406-0.142c0.27-0.239,0.691-0.762,1.244-1.096c0.702-0.424,1.27-0.096,1.206,0.72
	c-0.047,0.591-0.179,1.193-0.38,1.752c-0.929,2.58-3.635,9.734-3.635,9.734h2.27c0,0,2.749-7.323,3.15-8.007
	c2.516-4.559,4.48-4.979,5.334-4.94c0.853,0.038,0.664,0.822,0.4,1.214c-0.318,0.503-0.819,1.156-0.456,1.443
	s1.55,0.389,2.013-0.742C113.42,19.716,112.74,18.916,112.09,18.581z M97.373,25.639C98,23.986,100,18.686,100,18.686l-2.271-0.001
	c0,0-0.559,1.462-0.632,1.672c-0.053-0.351-0.154-0.736-0.391-1.056c-0.339-0.456-0.818-0.755-1.637-0.941
	c-0.817-0.184-2.183-0.067-3.06,0.29c-1.576,0.639-3.687,2.007-5.712,6.087c-0.644,1.324-1.106,2.954-0.848,4.453
	c0.368,2.136,2.218,3.261,4.251,2.523c0.715-0.26,1.898-0.935,2.481-1.416c0.878-0.724,1.277-1.137,1.945-2.055
	c-0.046,0.159-0.339,1.484-0.37,2.117c-0.05,1,0.501,1.577,1.502,1.694c1.57,0.184,3.82-1.382,4.232-2.735
	c0.06-0.201,0.084-0.29-0.024-0.509c-0.049-0.099-0.109-0.153-0.198,0.058c-0.498,1.22-1.771,1.724-2.209,1.678
	c-0.571-0.061-1-0.51-0.795-1.357C96.628,27.688,96.928,26.815,97.373,25.639z M94.974,25.96c-0.675,1.335-1.977,2.747-2.836,3.356
	c-0.858,0.608-1.771,0.966-2.383,1.014c-1.096,0.085-1.691-0.624-1.901-1.636c-0.211-1.012-0.138-1.892,0.75-3.802
	c0.889-1.911,2.428-3.751,3.555-4.661c0.989-0.827,1.938-1.05,2.588-0.992c0.773,0.07,1.428,0.639,1.618,1.399
	c0.189,0.761-0.02,1.692-0.02,1.692S95.167,25.454,94.974,25.96z M61.25,18.363c-2.852-0.573-6.547,1.7-8.207,5.434
	c-1.661,3.733-0.658,7.511,2.193,8.085c2.851,0.574,6.427-1.182,8.321-5.421C65.218,22.727,64.101,18.936,61.25,18.363z
	 M61.296,25.991c-1.252,3.227-3.741,5.353-5.318,4.989c-1.576-0.363-2.036-3.273-0.785-6.5c1.252-3.227,3.741-5.548,5.317-5.185
	C62.088,19.659,62.547,22.764,61.296,25.991z M43.122,20.847c0.463-1.131-0.218-1.931-0.868-2.266
	c-0.651-0.333-1.664-0.568-2.909,0.143c-1.037,0.571-2.395,1.894-3.172,3.095c0.238-0.647,0.31-1.66-0.015-2.542
	s-1.579-1.295-2.582-0.742c-1.004,0.554-1.531,1.38-2.006,2.087c-0.097,0.148-0.115,0.225-0.001,0.29s0.315-0.062,0.406-0.142
	c0.271-0.239,0.691-0.762,1.244-1.096c0.701-0.424,1.271-0.096,1.206,0.72c-0.048,0.591-0.179,1.193-0.38,1.752
	c-0.929,2.58-3.635,9.734-3.635,9.734h2.271c0,0,2.747-7.323,3.149-8.007c2.517-4.559,4.48-4.979,5.334-4.94
	c0.854,0.038,0.664,0.822,0.401,1.214c-0.318,0.503-0.819,1.156-0.457,1.443C41.472,21.876,42.659,21.978,43.122,20.847z
	 M50.61,21.882c0.363,0.287,1.55,0.389,2.013-0.743c0.463-1.131-0.069-2.025-1.114-2.497c-1.063-0.549-2.358-0.347-3.537,0.051
	c-3.387,1.144-6.43,5.038-6.45,9.077c-0.015,3.146,2.705,4.945,5.809,3.973c2.843-0.89,3.664-3.719,3.572-3.843
	c-0.048-0.063-0.151-0.116-0.291-0.05c-0.087,0.04-0.293,0.785-1.405,1.848c-1.234,1.18-2.799,1.211-3.891,0.632
	c-1.699-0.903-2.878-5.45,1.957-10.091c0.857-0.822,2.083-1.346,3.011-1.205c1.186,0.18,1.051,0.961,0.782,1.402
	C50.758,20.946,50.248,21.594,50.61,21.882z"/>
</svg>
